<?xml version="1.0" encoding="UTF-8" standalone="no"?>
<!-- Created with Inkscape (http://www.inkscape.org/) -->

<svg
   xmlns:dc="http://purl.org/dc/elements/1.1/"
   xmlns:cc="http://creativecommons.org/ns#"
   xmlns:rdf="http://www.w3.org/1999/02/22-rdf-syntax-ns#"
   xmlns:svg="http://www.w3.org/2000/svg"
   xmlns="http://www.w3.org/2000/svg"
   xmlns:sodipodi="http://sodipodi.sourceforge.net/DTD/sodipodi-0.dtd"
   xmlns:inkscape="http://www.inkscape.org/namespaces/inkscape"
   width="210mm"
   height="210mm"
   viewBox="0 0 210 210"
   version="1.1"
   id="svg1447"
   inkscape:version="0.92.3 (2405546, 2018-03-11)"
   sodipodi:docname="wtflight.svg">
  <defs
     id="defs1441">
    <inkscape:path-effect
       effect="bspline"
       id="path-effect2177"
       is_visible="true"
       weight="33.333333"
       steps="2"
       helper_size="0"
       apply_no_weight="true"
       apply_with_weight="true"
       only_selected="false" />
    <inkscape:path-effect
       effect="bspline"
       id="path-effect2151"
       is_visible="true"
       weight="33.333333"
       steps="2"
       helper_size="0"
       apply_no_weight="true"
       apply_with_weight="true"
       only_selected="false" />
    <inkscape:path-effect
       effect="bspline"
       id="path-effect2122"
       is_visible="true"
       weight="33.333333"
       steps="2"
       helper_size="0"
       apply_no_weight="true"
       apply_with_weight="true"
       only_selected="false" />
    <inkscape:path-effect
       effect="bspline"
       id="path-effect2118"
       is_visible="true"
       weight="33.333333"
       steps="2"
       helper_size="0"
       apply_no_weight="true"
       apply_with_weight="true"
       only_selected="false" />
    <inkscape:path-effect
       effect="bspline"
       id="path-effect2110"
       is_visible="true"
       weight="33.333333"
       steps="2"
       helper_size="0"
       apply_no_weight="true"
       apply_with_weight="true"
       only_selected="false" />
    <inkscape:path-effect
       effect="bspline"
       id="path-effect2071"
       is_visible="true"
       weight="33.333333"
       steps="2"
       helper_size="0"
       apply_no_weight="true"
       apply_with_weight="true"
       only_selected="false" />
    <inkscape:path-effect
       effect="bspline"
       id="path-effect2065"
       is_visible="true"
       weight="33.333333"
       steps="2"
       helper_size="0"
       apply_no_weight="true"
       apply_with_weight="true"
       only_selected="false" />
    <inkscape:path-effect
       effect="bspline"
       id="path-effect2151-5"
       is_visible="true"
       weight="33.333333"
       steps="2"
       helper_size="0"
       apply_no_weight="true"
       apply_with_weight="true"
       only_selected="false" />
  </defs>
  <sodipodi:namedview
     id="base"
     pagecolor="#ffffff"
     bordercolor="#666666"
     borderopacity="1.0"
     inkscape:pageopacity="0.0"
     inkscape:pageshadow="2"
     inkscape:zoom="0.49497475"
     inkscape:cx="581.60975"
     inkscape:cy="549.65646"
     inkscape:document-units="mm"
     inkscape:current-layer="layer3"
     showgrid="false"
     inkscape:window-width="1536"
     inkscape:window-height="801"
     inkscape:window-x="1912"
     inkscape:window-y="-8"
     inkscape:window-maximized="1" />
  <metadata
     id="metadata1444">
    <rdf:RDF>
      <cc:Work
         rdf:about="">
        <dc:format>image/svg+xml</dc:format>
        <dc:type
           rdf:resource="http://purl.org/dc/dcmitype/StillImage" />
        <dc:title></dc:title>
      </cc:Work>
    </rdf:RDF>
  </metadata>
  <g
     inkscape:groupmode="layer"
     id="layer3"
     inkscape:label="Layer 2">
    <g
       id="g2114">
      <path
         inkscape:connector-curvature="0"
         id="path2106"
         d="m 88.068451,144.61012 10.583333,1.51191 1.700896,25.51339 -4.535716,3.96875"
         style="fill:none;stroke:#000000;stroke-width:0.26458332px;stroke-linecap:butt;stroke-linejoin:miter;stroke-opacity:1" />
      <path
         inkscape:original-d="m 95.816964,175.60417 c -2.33059,2.01561 -4.787434,3.90549 -7.181548,5.85863 -3.905959,-2.52041 -7.811244,-5.03995 -11.717261,-7.55952 -3.716565,-2.83514 -7.433268,-5.66991 -11.150298,-8.50447 3.276092,-2.96111 6.55185,-5.92189 9.827381,-8.88244 4.157649,-3.96868 8.315738,-7.93776 12.473213,-11.90625"
         inkscape:path-effect="#path-effect2110"
         inkscape:connector-curvature="0"
         id="path2108"
         d="m 95.816964,175.60417 c -2.386595,1.94696 -4.787411,3.90552 -7.937559,3.62202 -3.150147,-0.28349 -7.055433,-2.80303 -10.866738,-5.48039 -3.811304,-2.67736 -7.528004,-5.51214 -7.748354,-8.41011 -0.220351,-2.89798 3.055407,-5.85876 6.771994,-9.32337 3.716587,-3.46462 7.874674,-7.43371 12.032144,-11.4022"
         style="fill:none;stroke:#000000;stroke-width:0.26458332px;stroke-linecap:butt;stroke-linejoin:miter;stroke-opacity:1" />
    </g>
    <path
       style="fill:none;stroke:#000000;stroke-width:0.26458332px;stroke-linecap:butt;stroke-linejoin:miter;stroke-opacity:1"
       d="m 133.23666,154.75252 c 4.47273,3.08681 9.13444,6.11062 8.97711,8.97681 -0.15733,2.8662 -5.13409,5.57507 -9.95343,7.71702 -4.81935,2.14194 -9.48076,3.71674 -12.4418,2.33065 -2.96104,-1.3861 -4.22087,-5.73253 -5.70124,-10.83509 -1.48038,-5.10256 -3.18134,-10.96143 -3.9686,-13.92224 -0.78726,-2.9608 -0.66128,-3.02379 1.22397,-3.05521 1.88525,-0.0314 5.54823,-0.0314 7.31197,-0.12594 1.76374,-0.0945 1.63774,-0.28352 3.71596,1.19643 2.07822,1.47994 6.36333,4.63076 10.83606,7.71757 z"
       id="path2116"
       inkscape:connector-curvature="0"
       inkscape:path-effect="#path-effect2118"
       inkscape:original-d="m 133.04762,154.81548 c 4.66197,3.02354 9.32368,6.04735 13.98512,9.07143 -4.97635,2.70852 -9.95311,5.41739 -14.93006,8.12649 -4.66174,1.57473 -9.32315,3.14953 -13.98512,4.7247 -1.25974,-4.34729 -2.51958,-8.69372 -3.77976,-13.04018 -1.70056,-5.85866 -3.40153,-11.71753 -5.10268,-17.57589 0.12625,-0.0633 0.25225,-0.12626 0.37797,-0.18899 3.64483,-2.7e-4 7.30781,-2.7e-4 10.96131,0 -0.12572,-0.18924 -0.25171,-0.37824 -0.37797,-0.56697 4.28261,3.14852 8.56772,6.29934 12.85119,9.44941 z" />
    <path
       style="fill:none;stroke:#000000;stroke-width:0.26458332px;stroke-linecap:butt;stroke-linejoin:miter;stroke-opacity:1"
       d="m 139.18986,142.8776 c -0.15746,-1.22861 0.72448,-3.05549 1.10252,-3.96878 0.37804,-0.91328 0.25203,-0.91328 6.24936,-1.32362 5.99734,-0.41035 18.06717,-1.22758 24.4296,0.1267 6.36244,1.35428 6.99241,4.88213 7.24444,6.96098 0.25203,2.07884 0.12605,2.70876 -0.0945,4.18973 -0.22057,1.48098 -0.5354,3.81071 -3.46498,4.44077 -2.92959,0.63006 -8.47254,-0.44074 -14.3943,-2.04717 -5.92177,-1.60643 -12.22114,-3.74822 -15.96945,-5.13414 -3.74831,-1.38592 -4.9452,-2.01587 -5.10266,-3.24447 z"
       id="path2120"
       inkscape:connector-curvature="0"
       inkscape:path-effect="#path-effect2122"
       inkscape:original-d="m 138.1503,143.47619 c 0.8822,-1.82715 1.76415,-3.65403 2.64583,-5.48065 -0.12571,-2.7e-4 -0.25172,-2.7e-4 -0.37798,0 12.12091,-0.82093 24.19074,-1.63816 36.28572,-2.45685 0.63021,3.52744 1.26018,7.05529 1.88988,10.58334 -0.12574,0.62973 -0.25172,1.25965 -0.37798,1.88988 -0.31487,2.33171 -0.62969,4.66144 -0.94494,6.99256 -5.54409,-1.07134 -11.08704,-2.14213 -16.63095,-3.2128 -6.29957,-2.14221 -12.59894,-4.28399 -18.89881,-6.4256 -1.19669,-0.63024 -2.39358,-1.26018 -3.59077,-1.88988 z" />
    <path
       style="opacity:1;fill:#000000;fill-opacity:1;stroke-width:0.71428573"
       d="m 643.99385,578.84322 c -20.46969,-2.92435 -40.83775,-8.10784 -71.78572,-18.26882 -27.08466,-8.89257 -39.83524,-13.95084 -43.39285,-17.21437 -2.41268,-2.21324 -2.15468,-7.29854 0.73044,-14.39743 1.9881,-4.89175 2.6001,-5.75186 4.44813,-6.25141 1.17857,-0.31858 11.625,-1.27211 23.21428,-2.11895 25.41219,-1.85688 69.74921,-2.27085 80.35715,-0.75028 21.82695,3.12873 31.89682,10.18818 34.67486,24.3087 1.09719,5.57692 0.52219,19.08291 -1.02519,24.08 -1.26153,4.07398 -4.60245,7.89053 -8.29253,9.47309 -2.46998,1.05931 -14.44414,1.78013 -18.92857,1.13947 z"
       id="path2128"
       inkscape:connector-curvature="0"
       transform="scale(0.26458333)" />
    <path
       style="opacity:1;fill:#000000;fill-opacity:1;stroke-width:0.71428573"
       d="m 455.51965,656.84882 c -8.39327,-3.13302 -13.49039,-10.33328 -18.98692,-26.82118 -4.5181,-13.55294 -20.75317,-71.65821 -20.75317,-74.27556 v -2.69341 l 5.46491,-0.46196 c 3.00571,-0.25407 11.94278,-0.46195 19.86016,-0.46195 h 14.39524 l 3.17556,2.02433 c 1.74656,1.11338 10.08627,6.99566 18.5327,13.07174 8.44643,6.07608 20.17857,14.38366 26.07143,18.46131 21.35054,14.77379 28.64837,21.02892 31.85901,27.30702 3.70766,7.24997 -0.34072,14.26781 -12.90863,22.37703 -10.36852,6.69011 -33.96463,17.23756 -45.65332,20.40701 -7.12087,1.93087 -17.35193,2.44862 -21.05697,1.06562 z"
       id="path2130"
       inkscape:connector-curvature="0"
       transform="scale(0.26458333)" />
    <path
       style="opacity:1;fill:#000000;fill-opacity:1;stroke-width:0.71428573"
       d="m 326.1367,675.36003 c -11.95903,-3.39921 -42.41078,-23.27041 -54.82398,-35.77523 -11.125,-11.20711 -11.25774,-19.20601 -0.53316,-32.12806 2.16071,-2.60344 13.25,-13.51268 24.64286,-24.24275 11.39285,-10.73007 24.55278,-23.17257 29.24428,-27.65001 l 8.53,-8.14079 19.3237,2.76901 c 10.62805,1.52296 19.38082,2.82612 19.45062,2.89592 0.0698,0.0698 1.43469,20.05349 3.03308,44.4082 1.5984,24.35472 3.06558,45.72773 3.2604,47.49558 l 0.35422,3.21429 -9.15933,7.9755 c -18.69537,16.27899 -24.45272,19.66432 -34.00455,19.99471 -3.42404,0.11843 -7.19019,-0.21152 -9.31814,-0.81637 z"
       id="path2132"
       inkscape:connector-curvature="0"
       transform="scale(0.26458333)" />
    <path
       style="opacity:1;fill:#000000;fill-opacity:1;stroke-width:0.20532332"
       d="m 41.81768,155.53409 c 5.714321,-0.8656 11.400271,-2.39986 20.039705,-5.40743 7.560961,-2.63213 11.120414,-4.12934 12.113558,-5.09532 0.673525,-0.65508 0.601501,-2.16029 -0.20391,-4.26151 -0.555,-1.44791 -0.725841,-1.70249 -1.241742,-1.85036 -0.329007,-0.0943 -3.24524,-0.37652 -6.480497,-0.62718 -7.09407,-0.54962 -24.195902,-0.29418 -27.157216,0.15589 -5.224587,1.19335 -4.580522,1.90265 -5.356041,6.0822 -0.306291,1.65072 0.255131,6.38337 0.687097,7.86248 0.35217,1.20585 1.284822,2.33552 2.314945,2.80394 0.689519,0.31356 4.032227,0.52691 5.284101,0.33729 z"
       id="path2128-3"
       inkscape:connector-curvature="0"
       sodipodi:nodetypes="cscccccsccc" />
    <path
       style="display:inline;fill:none;stroke:#000000;stroke-width:0.26458332px;stroke-linecap:butt;stroke-linejoin:miter;stroke-opacity:1"
       d="m 88.026701,138.0357 c -4.409843,-0.80179 -13.229743,-2.40541 -18.040719,-7.26103 -4.810977,-4.85563 -5.612766,-12.96261 -5.902285,-18.12982 -0.289519,-5.1672 -0.06679,-7.39451 1.024511,-10.17836 1.0913,-2.783855 3.051534,-6.125163 4.187408,-8.085114 1.135874,-1.959951 1.447715,-2.539086 1.625801,-3.652237 0.178086,-1.113151 0.222657,-2.762212 0.267167,-3.541678 0.04451,-0.779467 0.08908,-0.690331 0.401233,8.66e-4 0.312154,0.691198 0.890547,1.981461 1.202387,3.518278 0.31184,1.536816 0.356379,3.318448 0.200475,5.21173 -0.155904,1.893283 -0.512212,3.897512 0.111637,4.944485 0.623849,1.04697 2.227221,1.13604 3.518986,1.00237 1.291765,-0.13367 2.271907,-0.49009 3.140338,-1.31405 0.868432,-0.823972 1.625941,-2.116193 1.982212,-3.474615 0.35627,-1.358422 0.311716,-2.784201 -0.15595,-4.454397 -0.467666,-1.670195 -1.358723,-3.585967 -2.539109,-5.545846 -1.180387,-1.95988 -2.650462,-3.964525 -3.808625,-6.882248 -1.158162,-2.917722 -2.004535,-6.748673 -1.403133,-10.824485 0.601401,-4.075812 2.650573,-8.39689 4.833233,-11.960364 2.182659,-3.563475 4.499169,-6.370015 5.657217,-7.817684 1.158048,-1.447669 1.158048,-1.536819 0.802799,-0.515485 -0.355249,1.021333 -1.070084,3.165832 -1.604688,6.016987 -0.534604,2.851155 -0.890908,6.414226 -0.111322,9.398959 0.779585,2.984734 2.69486,5.389962 4.142577,7.238583 1.447716,1.848621 2.427688,3.1404 3.541502,3.407587 1.113815,0.267186 2.361034,-0.490055 3.051322,-1.536743 0.690287,-1.046689 0.823954,-2.383369 0.356307,-4.031222 -0.467647,-1.647852 -1.536954,-3.608251 -2.271929,-5.568236 -0.734976,-1.959985 -1.135898,-3.920056 -0.801797,-6.614903 0.334102,-2.694848 1.403288,-6.125159 3.44503,-10.012202 2.041743,-3.887044 5.085551,-8.273713 6.666944,-10.478586 1.58139,-2.204874 1.71505,-2.249425 2.09276,0.261272 0.37771,2.510697 1.00282,7.600887 1.93828,12.389592 0.93547,4.788705 2.18266,9.287535 4.20954,12.984908 2.02687,3.697373 4.83309,6.592681 6.32533,8.485741 1.49223,1.893061 1.67041,2.783961 1.87089,3.808624 0.20048,1.024663 0.42315,2.182565 0.44544,3.69722 0.0223,1.514656 -0.15585,3.385206 -1.18046,6.147256 -1.02461,2.76205 -2.89521,6.414171 -4.36522,9.064671 -1.47001,2.6505 -2.539,4.298517 -3.4077,5.701787 -0.8687,1.403269 -1.53675,2.561219 -1.75954,4.543889 -0.22279,1.98266 -1.3e-4,4.78823 1.00223,6.97113 1.00236,2.18289 2.784,3.74183 4.9222,4.9891 2.13821,1.24728 4.63275,2.18273 7.48362,2.20496 2.85087,0.0222 6.05829,-0.86873 8.55261,-3.96445 2.49433,-3.09573 4.2763,-8.39709 5.16714,-11.02521 0.89085,-2.62811 0.89085,-2.58361 0.71162,-0.58972 -0.17922,1.99389 -0.53346,5.89056 -0.0879,8.16254 0.44553,2.27199 1.6927,2.89557 2.53895,3.78632 0.84626,0.89075 1.29175,2.04902 2.00453,4.4992 0.71278,2.45018 1.69265,6.19149 0.5791,9.71058 -1.11354,3.51909 -4.32063,6.81525 -9.10945,8.90902 -4.78882,2.09376 -11.15822,2.98458 -14.34333,3.40765 -3.18511,0.42307 -3.18511,0.37857 -2.76431,-0.0422 0.4208,-0.42081 1.27218,-1.22739 1.80656,-2.49666 0.53439,-1.26927 0.75718,-3.00708 0.62357,-4.12051 -0.1336,-1.11343 -0.62368,-1.60351 -1.05786,-1.83739 -0.43418,-0.23387 -0.81281,-0.2116 -1.10253,0.34546 -0.28973,0.55707 -0.49003,1.64762 -0.61259,2.16 -0.12255,0.51237 -0.16707,0.44558 -0.86804,-1.21227 -0.70097,-1.65785 -2.06083,-4.9126 -4.23222,-6.88361 -2.17138,-1.97102 -5.15601,-2.66149 -6.71517,-3.06241 -1.55916,-0.40092 -1.69278,-0.51227 -2.11588,-0.38983 -0.423103,0.12245 -1.135684,0.47874 -1.046579,1.47026 0.08911,0.99151 0.979609,2.61668 2.093279,4.26492 1.11367,1.64824 2.44994,3.31858 2.65056,4.3542 0.20062,1.03562 -0.73481,1.43652 -1.84866,1.81524 -1.11384,0.37871 -2.405197,0.73495 -4.376791,-0.43464 -1.971594,-1.16959 -4.621372,-3.8639 -6.358633,-5.72366 -1.737262,-1.85977 -2.561346,-2.8843 -2.394264,-5.43458 0.167082,-2.55028 1.325283,-6.62626 1.904322,-8.75325 0.579039,-2.12699 0.579039,-2.30518 -1.066556,-0.40386 -1.645595,1.90133 -4.946812,5.89402 -5.926895,8.93439 -0.980083,3.04038 0.356168,5.13384 1.826197,7.01592 1.47003,1.88208 3.073594,3.55246 4.276316,4.77745 1.202721,1.22499 2.004526,2.00453 2.372067,2.50549 0.367542,0.50096 0.300722,0.7237 0.267266,0.83522 -0.03346,0.11152 -0.03346,0.11154 -4.443298,-0.69025 z"
       id="path2149"
       inkscape:connector-curvature="0"
       inkscape:path-effect="#path-effect2151-5"
       inkscape:original-d="m 92.436543,138.83749 c -8.81963,-1.60388 -17.63953,-3.2075 -26.459687,-4.81085 -0.801561,-8.10763 -1.603351,-16.21461 -2.405425,-24.32152 0.222983,-2.22745 0.445714,-4.45476 0.668173,-6.68174 1.959989,-3.340695 3.920219,-6.682005 5.879929,-10.022605 0.31205,-0.5793 0.6239,-1.15843 0.93544,-1.73725 0.0448,-1.64753 0.0894,-3.29659 0.13364,-4.94449 0.0448,0.0888 0.0894,0.17792 0.13364,0.26727 0.58003,1.29308 1.15843,2.58334 1.73725,3.87541 0.0448,1.7817 0.0894,3.56333 0.13363,5.34539 -0.35615,2.00455 -0.71245,4.00878 -1.06908,6.013565 1.60413,0.0888 3.2075,0.17791 4.81086,0.26727 0.9801,-0.35657 1.96024,-0.71299 2.93996,-1.06908 0.75728,-1.291645 1.51479,-2.583865 2.27179,-3.875405 -0.0443,-1.42536 -0.0888,-2.85114 -0.13363,-4.27631 -0.89048,-1.91536 -1.78154,-3.83113 -2.6727,-5.7463 -1.46963,-2.00466 -2.9397,-4.00931 -4.40995,-6.01356 -0.84606,-3.831043 -1.69244,-7.661992 -2.53906,-11.492593 2.04923,-4.3209 4.0984,-8.641979 6.1472,-12.96257 2.31643,-2.80639 4.63294,-5.61293 6.94901,-8.41899 2.7e-4,-0.0893 2.7e-4,-0.17845 0,-0.26727 -0.71034,2.13154 -1.42517,4.27604 -2.13816,6.41446 -0.35614,3.56386 -0.71245,7.12693 -1.06907,10.690792 1.91585,2.405348 3.83112,4.81058 5.74629,7.216269 0.98027,1.291559 1.96024,2.583339 2.93997,3.875411 1.24756,-0.75755 2.49478,-1.51479 3.74177,-2.271792 0.13387,-1.336278 0.26753,-2.672959 0.4009,-4.009038 -1.06858,-1.959822 -2.13789,-3.92022 -3.20723,-5.879931 -0.40062,-1.96015 -0.80154,-3.920221 -1.20271,-5.879931 1.06923,-3.42987 2.13842,-6.86018 3.20723,-10.28988 2.9845,-4.36526 6.05837,-8.73107 9.087157,-13.09621 0.13389,-0.0448 0.26753,-0.0894 0.4009,-0.13363 0.62242,5.06579 1.24753,10.15598 1.87089,15.23436 1.24758,4.49898 2.49478,8.99781 3.74177,13.49711 2.80671,2.895271 5.61293,5.79058 8.41899,8.68626 0.17845,0.89064 0.35663,1.78154 0.53454,2.672702 0.22304,1.158168 0.44572,2.316069 0.66818,3.474501 -0.17795,1.87096 -0.3561,3.74151 -0.53454,5.61266 -1.87091,3.65298 -3.74151,7.3051 -5.61266,10.95805 -1.06891,1.64804 -2.13789,3.29606 -3.20724,4.94449 -0.66803,1.158115 -1.33608,2.316065 -2.00452,3.474495 0.22305,2.80683 0.44572,5.6124 0.66818,8.41899 1.78221,1.55895 3.56385,3.11788 5.34539,4.67722 2.49475,0.93517 4.98929,1.87062 7.48354,2.80633 3.20732,-0.89111 6.41474,-1.78206 9.62171,-2.6727 1.78188,-5.30059 3.56385,-10.60195 5.34539,-15.90253 2.6e-4,0.0443 2.6e-4,0.0888 0,0.13363 -0.35821,3.94297 -0.71246,7.83964 -1.06908,11.75986 1.24761,0.62341 2.49478,1.247 3.74177,1.87089 0.44568,1.1578 0.89117,2.31607 1.33635,3.4745 0.98037,3.74197 1.96024,7.48328 2.93996,11.22532 -3.20712,3.29622 -6.4142,6.59239 -9.6217,9.88898 -6.37018,0.8907 -12.73958,1.78153 -19.10977,2.67269 2.6e-4,-0.0448 2.6e-4,-0.0893 0,-0.13363 0.84159,-0.79731 1.69297,-1.60389 2.53906,-2.40543 0.22292,-1.73696 0.44571,-3.47477 0.66817,-5.21176 -0.48964,-0.49017 -0.97972,-0.98025 -1.46998,-1.46998 -0.37837,0.022 -0.757,0.0443 -1.13589,0.0668 -0.20034,1.09189 -0.40064,2.18244 -0.60136,3.27405 -0.0443,-0.0671 -0.0888,-0.1339 -0.13363,-0.20045 -1.35712,-3.24907 -2.71698,-6.50382 -4.07586,-9.75534 -2.98413,-0.69068 -5.96876,-1.38116 -8.95353,-2.07134 -0.13338,-0.11163 -0.267,-0.22299 -0.4009,-0.33408 -0.712597,0.35616 -1.425177,0.71245 -2.138157,1.06907 0.89156,1.62635 1.782057,3.25152 2.672687,4.87767 1.33669,1.67027 2.67296,3.34061 4.00904,5.01131 -0.93519,0.40064 -1.87062,0.80154 -2.80633,1.20271 -1.29197,0.35622 -2.583327,0.71245 -3.875397,1.06908 -2.6508,-2.69589 -5.30058,-5.3902 -7.95127,-8.08491 -0.82381,-1.02479 -1.64789,-2.04933 -2.47224,-3.0736 1.1584,-4.076 2.3166,-8.15198 3.4745,-12.22758 2.7e-4,-0.17843 2.7e-4,-0.35662 0,-0.53454 -3.29116,3.98059 -6.59238,7.97328 -9.88897,11.96032 1.33671,2.09349 2.67296,4.18695 4.00904,6.28083 1.60394,1.67022 3.2075,3.3406 4.81086,5.0113 0.80207,0.77928 1.60388,1.55881 2.40542,2.33861 -0.0665,0.22246 -0.13337,0.44518 -0.20045,0.66817 z" />
    <path
       style="opacity:1;fill:#000000;fill-opacity:1;stroke-width:0.71428573"
       d="m 435.20124,530.95167 c 4.11418,-4.25557 7.32165,-13.38472 7.32165,-20.839 0,-4.04299 -2.65503,-9.14595 -5.21626,-10.02567 -2.73075,-0.93793 -4.18053,0.10123 -5.52599,3.96089 -0.60468,1.73458 -1.26027,3.59379 -1.45689,4.13157 -0.19661,0.53779 -1.74314,-2.26734 -3.43673,-6.23361 -3.76589,-8.81947 -10.31464,-18.93037 -14.84246,-22.91591 -4.48697,-3.94959 -13.17052,-8.10403 -22.45847,-10.74471 -8.81344,-2.50577 -11.96857,-2.68185 -14.29527,-0.7978 -3.69468,2.99176 -1.19408,10.41603 8.08349,23.99995 6.60071,9.66454 8.6444,13.56991 8.06178,15.4056 -0.53575,1.68798 -2.9225,2.98742 -8.42565,4.58722 -8.64303,2.5126 -14.93292,-1.02071 -31.61133,-17.75745 -14.41915,-14.4696 -14.92442,-15.40023 -14.39912,-26.52108 0.29815,-6.31179 1.0885,-10.64379 4.01845,-22.0254 3.82352,-14.85277 4.2495,-17.61746 2.71445,-17.61746 -2.00579,0 -17.91858,19.95377 -23.28518,29.19832 -4.53827,7.8177 -5.97852,12.67127 -5.68125,19.14557 0.20268,4.41413 0.69106,6.44245 2.33003,9.67703 2.84686,5.61841 9.68773,13.99082 21.31926,26.09225 5.40179,5.62001 9.82143,10.52935 9.82143,10.90966 0,1.05049 -1.40922,0.88947 -16.07143,-1.83631 -48.69938,-9.05344 -70.19732,-22.00278 -80.40561,-48.43253 -5.07042,-13.12755 -7.34473,-25.50715 -8.65694,-47.1216 -1.62728,-26.80427 0.29019,-33.9262 17.2152,-63.94132 7.62262,-13.51809 8.43244,-15.728 9.20503,-25.11964 l 0.49946,-6.07143 1.58831,4.12148 c 3.18948,8.27635 4.02967,14.85641 3.34947,26.23179 -0.90578,15.14777 -0.79541,18.7765 0.63765,20.96362 2.31877,3.53889 4.52525,4.40036 11.17887,4.36453 10.29675,-0.0554 16.56004,-4.08004 21.11647,-13.56874 1.6929,-3.52544 2.09466,-5.42358 2.34174,-11.06377 0.27088,-6.1833 0.0909,-7.42904 -1.96091,-13.57143 -2.3848,-7.13929 -6.98225,-16.31101 -12.45919,-24.85559 -10.50716,-16.39225 -15.34587,-30.00324 -16.54867,-46.55046 -1.18828,-16.34737 5.76865,-37.55015 19.65697,-59.90897 4.65472,-7.49364 14.49421,-21.06694 18.96556,-26.16246 2.18125,-2.48573 2.23494,-3.12168 -0.66332,7.85714 -2.95182,11.18165 -4.19832,20.14246 -4.22285,30.35715 -0.0381,15.86031 3.09782,24.47957 14.32834,39.38235 10.86288,14.41491 13.718,17.04622 18.49613,17.04622 7.30774,0 13.124,-6.58004 13.124,-14.84742 0,-4.52388 -1.432,-9.23867 -6.14727,-20.23954 -6.69923,-15.62948 -8.011,-24.32479 -5.59277,-37.07267 3.65037,-19.24319 16.85862,-44.77005 38.04021,-73.51823 3.40376,-4.61967 3.99086,-5.12991 4.45598,-3.87258 0.29463,0.79647 1.71326,9.45864 3.1525,19.24928 7.33952,49.92787 13.61626,71.38728 26.5357,90.72228 2.12353,3.17804 7.57595,10.24947 12.11648,15.71429 9.75477,11.74048 12.03135,15.43213 13.50072,21.89243 2.71369,11.93119 2.12679,22.48222 -1.9313,34.72038 -3.15137,9.50371 -15.32162,33.64606 -25.23016,50.04951 -10.94864,18.12535 -11.35913,19.26096 -11.38203,31.48798 -0.0199,10.59375 1.3971,17.05319 5.16833,23.56098 8.92739,15.40551 33.47691,26.9165 52.06872,24.41443 20.75733,-2.7935 31.92902,-15.34778 44.25685,-49.73403 l 3.08266,-8.59852 -0.43665,11.79027 c -0.45871,12.38591 0.27374,19.66711 2.40016,23.85989 0.61561,1.21384 3.1765,4.3535 5.69087,6.97701 5.24651,5.47427 6.43002,7.8385 9.82048,19.6179 4.00757,13.92335 4.80025,22.40596 2.92738,31.32636 -2.8467,13.55882 -13.35697,25.93681 -29.10883,34.28163 -13.11559,6.94823 -30.55675,11.68062 -56.44259,15.31485 -13.80877,1.93867 -13.41816,1.96958 -10.69566,-0.84648 z"
       id="path2173"
       inkscape:connector-curvature="0"
       transform="scale(0.26458333)" />
    <path
       style="fill:none;stroke:#000000;stroke-width:0.26458332px;stroke-linecap:butt;stroke-linejoin:miter;stroke-opacity:1"
       d="m 131.78784,83.14149 c -2.29921,1.779648 -6.89792,5.685402 -10.44156,9.354999 -3.54364,3.669596 -6.03183,7.102668 -7.38655,10.192121 -1.35473,3.08945 -1.57479,5.8245 -0.78722,7.7461 0.78757,1.9216 2.58277,3.02392 4.86642,3.44911 2.28366,0.4252 5.0556,0.1732 6.88237,-0.96077 1.82676,-1.13398 2.7088,-3.15005 3.21269,-6.85062 0.50389,-3.70057 0.6299,-9.087578 1.4804,-13.182272 0.85049,-4.094695 2.42547,-6.898159 3.29163,-8.48879 0.86617,-1.590631 1.02367,-1.96865 1.10235,-2.330702 0.0787,-0.362053 0.0787,-0.708823 -2.22053,1.070824 z"
       id="path2175"
       inkscape:connector-curvature="0"
       inkscape:path-effect="#path-effect2177"
       inkscape:original-d="m 134.08705,81.015627 c -4.59844,3.905491 -9.19715,7.811244 -13.79613,11.717264 -2.48823,3.43323 -4.97642,6.866302 -7.46503,10.299849 -0.28324,2.7403 -0.4407,5.48039 -0.66146,8.22098 1.79584,1.10228 3.59104,2.2046 5.38616,3.3073 2.77198,-0.25224 5.54392,-0.50424 8.31548,-0.75596 0.88212,-2.01593 1.76415,-4.03201 2.64583,-6.04762 0.12624,-5.38557 0.25225,-10.772582 0.37798,-16.158479 1.57509,-2.803446 3.15007,-5.60691 4.7247,-8.409969 0.15774,-0.378199 0.31525,-0.756217 0.47247,-1.133928 2.7e-4,-0.346451 2.7e-4,-0.693221 0,-1.039437 z" />
    <path
       style="opacity:1;fill:#000000;fill-opacity:1;stroke-width:0.35714287"
       d="m 449.29421,430.2079 c -7.04118,-0.76994 -12.98358,-3.27739 -16.75514,-7.07 -4.07124,-4.09396 -5.74486,-8.53114 -5.74486,-15.231 0,-7.24939 1.93065,-14.28022 6.35109,-23.12864 7.81301,-15.63939 21.97631,-32.23046 45.43462,-53.22273 9.95001,-8.90402 23.28085,-19.69522 26.18665,-21.19787 l 1.05048,-0.54322 -0.24674,1.01568 c -0.1357,0.55863 -1.99566,4.31034 -4.13323,8.33712 -9.41795,17.74163 -12.6395,28.6204 -14.8066,50 -0.2887,2.84822 -0.85765,9.11607 -1.26434,13.92857 -0.91383,10.81394 -1.63495,17.45824 -2.3306,21.4738 -2.54767,14.70619 -7.40211,21.38181 -17.72372,24.37289 -5.07411,1.47043 -10.339,1.88635 -16.01761,1.2654 z"
       id="path2179"
       inkscape:connector-curvature="0"
       transform="scale(0.26458333)" />
  </g>
</svg>
